<svg id="Group_17" data-name="Group 17" xmlns="http://www.w3.org/2000/svg" xmlns:xlink="http://www.w3.org/1999/xlink" width="162.394" height="455.372" viewBox="0 0 162.394 455.372">
  <defs>
    <clipPath id="clip-path">
      <rect id="Rectangle_18" data-name="Rectangle 18" width="162.394" height="455.372" fill="#f2f4f6"/>
    </clipPath>
  </defs>
  <g id="Group_14" data-name="Group 14" clip-path="url(#clip-path)">
    <path id="Path_19" data-name="Path 19" d="M26.9,199.514,0,455.372H162.394L134.927,199.514a.355.355,0,0,0-.354-.318h10.213l.35-.289,6.471-35.992c-.141-.17-.206-.251-.347-.418h-25.64a.365.365,0,0,0,.363-.363V92.243a.365.365,0,0,0-.363-.363h12.454a.353.353,0,0,0,.354-.354V72.594a.353.353,0,0,0-.354-.354H125.631a.353.353,0,0,0,.354-.354V52.856c-.09-.125-.151-.212-.241-.334L86.074,38.953V0h-9.76V38.76L36.082,52.522c-.09.122-.151.209-.241.334V71.887a.355.355,0,0,0,.357.354H23.75a.355.355,0,0,0-.354.354V91.526a.355.355,0,0,0,.354.354H36.2a.365.365,0,0,0-.363.363v69.891a.365.365,0,0,0,.363.363H10.567c-.141.167-.209.248-.35.418l6.474,35.992c.129.109.215.18.347.289H27.251a.355.355,0,0,0-.35.318m41.328-86.482a.237.237,0,0,1,.238-.238H93.358a.237.237,0,0,1,.238.238v40.695a.237.237,0,0,1-.238.238H68.467a.237.237,0,0,1-.238-.238Zm23.255,121.2v25.1H70.344v-25.1a6.961,6.961,0,0,1,6.96-6.963h7.217a6.964,6.964,0,0,1,6.963,6.963M68.229,315.561a8.355,8.355,0,0,1,8.355-8.355h8.657a8.352,8.352,0,0,1,8.355,8.355v30.125H68.229Z" fill="#f2f4f6"/>
  </g>
</svg>
