<svg id="Group_29" data-name="Group 29" xmlns="http://www.w3.org/2000/svg" xmlns:xlink="http://www.w3.org/1999/xlink" width="17.442" height="33.721" viewBox="0 0 17.442 33.721">
  <defs>
    <clipPath id="clip-path">
      <rect id="Rectangle_73" data-name="Rectangle 73" width="17.442" height="33.721" fill="#02284b"/>
    </clipPath>
  </defs>
  <g id="Group_28" data-name="Group 28" clip-path="url(#clip-path)">
    <path id="Path_28" data-name="Path 28" d="M13.812,5.532h3.63V.205c-.613,0-1.084-.141-1.744-.141a23.5,23.5,0,0,0-3.158,0A8.275,8.275,0,0,0,7.967,1.478,6.684,6.684,0,0,0,5.28,6.05a13.186,13.186,0,0,0-.142,2.357v4.1H0V18.5H5.185V33.722h6.27V18.637h5.186c.33-2.027.471-3.913.8-6.128H11.5V8.266c-.189-2.121.9-2.593,2.31-2.734" transform="translate(0 -0.001)" fill="#02284b"/>
  </g>
</svg>
