<svg id="Group_16" data-name="Group 16" xmlns="http://www.w3.org/2000/svg" xmlns:xlink="http://www.w3.org/1999/xlink" width="138.666" height="388.837" viewBox="0 0 138.666 388.837">
  <defs>
    <clipPath id="clip-path">
      <rect id="Rectangle_18" data-name="Rectangle 18" width="138.666" height="388.837" fill="#02284b"/>
    </clipPath>
  </defs>
  <g id="Group_14" data-name="Group 14" clip-path="url(#clip-path)">
    <path id="Path_19" data-name="Path 19" d="M22.97,170.363,0,388.837H138.666L115.213,170.363a.3.3,0,0,0-.3-.272h8.721l.3-.247,5.526-30.733c-.121-.145-.176-.214-.3-.357H107.266a.312.312,0,0,0,.31-.31V78.765a.312.312,0,0,0-.31-.31H117.9a.3.3,0,0,0,.3-.3V61.987a.3.3,0,0,0-.3-.3H107.274a.3.3,0,0,0,.3-.3V45.133c-.077-.107-.129-.181-.206-.285L73.5,33.261V0H65.163V33.1L30.81,44.848c-.077.1-.129.178-.206.285v16.25a.3.3,0,0,0,.3.3H20.28a.3.3,0,0,0-.3.3V78.153a.3.3,0,0,0,.3.3H30.914a.312.312,0,0,0-.31.31v59.679a.312.312,0,0,0,.31.31H9.023c-.121.143-.178.211-.3.357l5.528,30.733c.11.093.184.154.3.247h8.721a.3.3,0,0,0-.3.272M58.26,96.517a.2.2,0,0,1,.2-.2H79.717a.2.2,0,0,1,.2.2v34.749a.2.2,0,0,1-.2.2H58.463a.2.2,0,0,1-.2-.2ZM78.117,200.011v21.436H60.066V200.011a5.944,5.944,0,0,1,5.943-5.946h6.163a5.947,5.947,0,0,1,5.946,5.946M58.26,269.454a7.134,7.134,0,0,1,7.134-7.134h7.392a7.132,7.132,0,0,1,7.134,7.134v25.723H58.26Z" fill="#02284b"/>
  </g>
</svg>
