<svg id="Group_37" data-name="Group 37" xmlns="http://www.w3.org/2000/svg" xmlns:xlink="http://www.w3.org/1999/xlink" width="33.327" height="33.911" viewBox="0 0 33.327 33.911">
  <defs>
    <clipPath id="clip-path">
      <rect id="Rectangle_77" data-name="Rectangle 77" width="33.327" height="33.911" fill="#02284b"/>
    </clipPath>
  </defs>
  <g id="Group_36" data-name="Group 36" clip-path="url(#clip-path)">
    <path id="Path_33" data-name="Path 33" d="M32.865,13.83H17.288l-.167.155v6.366h9.051a7.963,7.963,0,0,1-3.436,5.162,11,11,0,0,1-8.183,1.126A10.048,10.048,0,0,1,7.42,20.073a11.745,11.745,0,0,1,0-6.4c.081-.171.17-.339.243-.514A9.993,9.993,0,0,1,18.089,6.855a9.883,9.883,0,0,1,5.138,2.081l4.939-4.916c-.041-.038-.115-.117-.2-.183-3.042-2.4-6.364-4-10.375-3.825a21.926,21.926,0,0,0-4.918.4A16.546,16.546,0,0,0,1.758,9.356,15.888,15.888,0,0,0,.017,17.548a14.842,14.842,0,0,0,1.733,6.78A30.531,30.531,0,0,0,4.2,28.088,16.549,16.549,0,0,0,19.035,33.8a14.986,14.986,0,0,0,9.048-4.1c4.584-3.837,6.113-11.583,4.782-15.872" transform="translate(-0.001 0)" fill="#02284b"/>
  </g>
</svg>
