<svg id="Group_25" data-name="Group 25" xmlns="http://www.w3.org/2000/svg" xmlns:xlink="http://www.w3.org/1999/xlink" width="75.889" height="67.478" viewBox="0 0 75.889 67.478">
  <defs>
    <clipPath id="clip-path">
      <rect id="Rectangle_70" data-name="Rectangle 70" width="75.889" height="67.478" fill="#f9b92b"/>
    </clipPath>
  </defs>
  <g id="Group_24" data-name="Group 24" clip-path="url(#clip-path)">
    <path id="Path_23" data-name="Path 23" d="M75.889,33.137a2.759,2.759,0,0,1-2.205,2.192,3.812,3.812,0,0,1-1.474-.1c-5.651-1.416-11.3-2.859-16.946-4.276a1.079,1.079,0,0,0-.761.118c-5.119,3.275-10.285,6.482-15.315,9.889-3.269,2.215-6.336,4.726-9.493,7.106-1.218.918-2.423,1.854-3.655,2.752a.93.93,0,0,0-.43.9q.217,5.959.393,11.92a3.587,3.587,0,0,1-3.4,3.842A3.651,3.651,0,0,1,18.8,63.761q-.255-7.8-.531-15.592a.867.867,0,0,1,.416-.831q5.467-4.1,10.912-8.23c.093-.07.179-.15.373-.314-.663-.125-1.215-.24-1.772-.331-3.322-.541-6.644-1.084-9.97-1.6a1.684,1.684,0,0,0-.953.158c-3.974,2-7.934,4.024-11.9,6.032A3.6,3.6,0,1,1,1.977,36.7q7.145-3.657,14.312-7.27a1.2,1.2,0,0,1,.688-.109c3.936.634,7.868,1.289,11.8,1.92a1.2,1.2,0,0,0,.77-.129q8.993-5.764,17.958-11.572a1.029,1.029,0,0,0,.391-.717c.115-2.588.2-5.177.28-7.765.091-2.769.185-5.539.261-8.309A2.816,2.816,0,0,1,50.467,0h1.2a2.972,2.972,0,0,1,1.952,3.316c-.232,5.352-.377,10.708-.54,16.063a1.568,1.568,0,0,0,.218.836q1.649,2.622,3.356,5.206a1.278,1.278,0,0,0,.684.491c5.21,1.343,10.419,2.688,15.643,3.975,1.4.345,2.5.92,2.9,2.407Z" transform="translate(0 0.001)" fill="#f9b92b"/>
    <path id="Path_24" data-name="Path 24" d="M468.368,119.645a5.83,5.83,0,1,1-5.864-5.813,5.8,5.8,0,0,1,5.864,5.813" transform="translate(-401.595 -100.095)" fill="#f9b92b"/>
  </g>
</svg>
