<svg id="Group_27" data-name="Group 27" xmlns="http://www.w3.org/2000/svg" xmlns:xlink="http://www.w3.org/1999/xlink" width="57.146" height="55.426" viewBox="0 0 57.146 55.426">
  <defs>
    <clipPath id="clip-path">
      <rect id="Rectangle_71" data-name="Rectangle 71" width="57.146" height="55.426" fill="#f9b92b"/>
    </clipPath>
  </defs>
  <g id="Group_26" data-name="Group 26" clip-path="url(#clip-path)">
    <path id="Path_25" data-name="Path 25" d="M57.145,93.715v34.353a.564.564,0,0,0-.1.159,5.238,5.238,0,0,1-5.67,4.607q-22.816,0-45.632,0a7.235,7.235,0,0,1-1.466-.1,5.279,5.279,0,0,1-4.274-5.4q-.016-8.94,0-17.88,0-7.53,0-15.06a5.241,5.241,0,0,1,4.61-5.484A26.706,26.706,0,0,1,8.2,88.852q21.726,0,43.453,0a5.275,5.275,0,0,1,5.3,4.062c.066.266.127.534.191.8M28.557,94.907a15.941,15.941,0,1,0,15.92,15.923,15.922,15.922,0,0,0-15.92-15.923" transform="translate(0 -77.41)" fill="#f9b92b"/>
    <path id="Path_26" data-name="Path 26" d="M113.338,9.564h-3.719c-.3-3.5-.194-6.133,2.7-8.306A5.869,5.869,0,0,1,115.883.025c5.383-.011,10.767-.057,16.15.011a6.537,6.537,0,0,1,6.41,6.254c.06,1.063.009,2.133.009,3.253h-3.8c0-.852-.055-1.7.011-2.539A3,3,0,0,0,131.4,3.755q-7.4.058-14.8,0A3,3,0,0,0,113.326,7c.067.826.012,1.661.012,2.563" transform="translate(-95.435 0)" fill="#f9b92b"/>
    <path id="Path_27" data-name="Path 27" d="M159.629,204.017h-5.614v-6.289h5.579v-5.619h6.344v5.58h5.613v6.289h-5.567v5.629h-6.356Z" transform="translate(-134.227 -167.426)" fill="#f9b92b"/>
  </g>
</svg>
