<svg xmlns="http://www.w3.org/2000/svg" xmlns:xlink="http://www.w3.org/1999/xlink" width="52.341" height="56" viewBox="0 0 52.341 56">
  <defs>
    <clipPath id="clip-path">
      <rect id="Rectangle_80" data-name="Rectangle 80" width="52.341" height="34.701" transform="translate(0 0)" fill="none"/>
    </clipPath>
  </defs>
  <g id="Group_11283" data-name="Group 11283" transform="translate(-749 -1516)">
    <rect id="Rectangle_41" data-name="Rectangle 41" width="42" height="45" rx="21" transform="translate(754 1527)" fill="#f9b92b"/>
    <g id="Group_42" data-name="Group 42" transform="translate(749 1516)">
      <g id="Group_41" data-name="Group 41" clip-path="url(#clip-path)">
        <path id="Path_36" data-name="Path 36" d="M51.341,30.814v.345l-.287.083a60.226,60.226,0,0,1-10.719,1.789q-4.375.387-8.77.542a134.808,134.808,0,0,1-17.312-.358c-3.069-.283-6.127-.7-9.18-1.132C3.8,31.9,2.554,31.541,1.3,31.24c-.121-.029-.3-.207-.3-.313A9.033,9.033,0,0,1,1.88,26.76a3.613,3.613,0,0,1,1.8-1.773c.264-.108.309-.243.333-.5a39.179,39.179,0,0,1,.468-4.269A18.469,18.469,0,0,1,14.028,7.392c.966-.542,2.005-.956,3.037-1.441l3.7,7.382.1-.013V3.91c0-.244.008-.488.03-.731A2.288,2.288,0,0,1,23.2,1.012C25,1,26.8,1,28.593,1.012a2.269,2.269,0,0,1,2.261,1.814,4.717,4.717,0,0,1,.082,1.027q.009,4.523,0,9.045l.307.064c1.176-2.2,2.356-4.4,3.519-6.6.144-.273.265-.331.555-.22a19.311,19.311,0,0,1,10.317,8.752,19.966,19.966,0,0,1,2.4,9.533.607.607,0,0,0,.392.6,5.551,5.551,0,0,1,1.25.959,5.683,5.683,0,0,1,1.309,2.766c.147.682.237,1.377.353,2.066" fill="#f9b92b"/>
        <path id="Path_37" data-name="Path 37" d="M51.341,30.814v.345l-.287.083a60.226,60.226,0,0,1-10.719,1.789q-4.375.387-8.77.542a134.808,134.808,0,0,1-17.312-.358c-3.069-.283-6.127-.7-9.18-1.132C3.8,31.9,2.554,31.541,1.3,31.24c-.121-.029-.3-.207-.3-.313A9.033,9.033,0,0,1,1.88,26.76a3.613,3.613,0,0,1,1.8-1.773c.264-.108.309-.243.333-.5a39.179,39.179,0,0,1,.468-4.269A18.469,18.469,0,0,1,14.028,7.392c.966-.542,2.005-.956,3.037-1.441l3.7,7.382.1-.013V3.91c0-.244.008-.488.03-.731A2.288,2.288,0,0,1,23.2,1.012C25,1,26.8,1,28.593,1.012a2.269,2.269,0,0,1,2.261,1.814,4.717,4.717,0,0,1,.082,1.027q.009,4.523,0,9.045l.307.064c1.176-2.2,2.356-4.4,3.519-6.6.144-.273.265-.331.555-.22a19.311,19.311,0,0,1,10.317,8.752,19.966,19.966,0,0,1,2.4,9.533.607.607,0,0,0,.392.6,5.551,5.551,0,0,1,1.25.959,5.683,5.683,0,0,1,1.309,2.766c.147.682.237,1.377.353,2.066" fill="none" stroke="#02284b" stroke-linecap="round" stroke-linejoin="round" stroke-width="2"/>
      </g>
    </g>
  </g>
</svg>
