<svg xmlns="http://www.w3.org/2000/svg" xmlns:xlink="http://www.w3.org/1999/xlink" width="437.943" height="438" viewBox="0 0 437.943 438">
  <defs>
    <clipPath id="clip-path">
      <rect id="Rectangle_10" data-name="Rectangle 10" width="437.943" height="438" fill="none"/>
    </clipPath>
  </defs>
  <g id="Group_13" data-name="Group 13" opacity="0.243">
    <g id="Group_12" data-name="Group 12" clip-path="url(#clip-path)">
      <path id="Path_13" data-name="Path 13" d="M437.943,218.984c0,120.936-98.038,218.972-218.972,218.972S0,339.919,0,218.984,98.036.012,218.972.012,437.943,98.048,437.943,218.984" transform="translate(0 0.015)" fill="#fff"/>
      <path id="Path_14" data-name="Path 14" d="M436.5,198.147,187,199.069V179.236l221.645-68.873A218.865,218.865,0,0,0,218.515,0C112.9,0,24.764,74.766,4.107,174.253l142.283,6.017V199.9L.122,234.49C8.075,348.2,102.78,438,218.515,438c120.949,0,219-98.05,219-219,0-7.038-.364-13.988-1.013-20.854" transform="translate(0.154)" fill="#faa800"/>
      <path id="Path_15" data-name="Path 15" d="M148.552,182.317a.25.25,0,0,0-.249-.224h7.18l.246-.2,4.55-25.307c-.1-.118-.145-.174-.244-.292H142.009a.255.255,0,0,0,.255-.255V106.9a.255.255,0,0,0-.255-.255h8.756a.248.248,0,0,0,.249-.249V93.085a.248.248,0,0,0-.249-.249h-8.749a.248.248,0,0,0,.249-.249V79.207c-.061-.088-.106-.149-.167-.237l-27.89-9.54V42.046h-6.864V69.294L79.057,78.97c-.061.088-.106.149-.167.237v13.38a.248.248,0,0,0,.249.249H70.389a.248.248,0,0,0-.249.249v13.31a.248.248,0,0,0,.249.249h8.756a.255.255,0,0,0-.255.255v49.138a.255.255,0,0,0,.255.255H61.118c-.1.118-.145.174-.246.294l4.552,25.3.244.2h7.18a.249.249,0,0,0-.246.224L53.689,362.2a217.773,217.773,0,0,0,90.623,22.712L148.1,385l6.966.018c.24,0,.477,0,.714-.018l7.61-.348c.416-.032,4.059-.258,4.475-.289Z" transform="translate(67.656 52.984)" fill="#001f3b"/>
      <path id="Path_16" data-name="Path 16" d="M92.581,106.079H75.08a.167.167,0,0,1-.167-.167V77.3a.167.167,0,0,1,.167-.167h17.5a.167.167,0,0,1,.167.167v28.611a.167.167,0,0,1-.167.167" transform="translate(94.401 97.199)" fill="#faa800"/>
      <path id="Path_17" data-name="Path 17" d="M92.749,164.663H74.914v-21.18a5.874,5.874,0,0,1,5.874-5.874h6.087a5.875,5.875,0,0,1,5.874,5.874Z" transform="translate(94.402 173.407)" fill="#faa800"/>
      <path id="Path_18" data-name="Path 18" d="M90.434,135.289H75.571V117.639a4.9,4.9,0,0,1,4.9-4.9h5.072a4.9,4.9,0,0,1,4.9,4.9Z" transform="translate(95.23 142.074)" fill="#faa800"/>
    </g>
  </g>
</svg>
