<svg id="Group_19" data-name="Group 19" xmlns="http://www.w3.org/2000/svg" xmlns:xlink="http://www.w3.org/1999/xlink" width="54.951" height="55" viewBox="0 0 54.951 55">
  <defs>
    <clipPath id="clip-path">
      <rect id="Rectangle_67" data-name="Rectangle 67" width="54.951" height="55" fill="#f9b92b"/>
    </clipPath>
  </defs>
  <g id="Group_18" data-name="Group 18" clip-path="url(#clip-path)">
    <path id="Path_20" data-name="Path 20" d="M54.951,29.6c-.165,1.042-.31,2.088-.5,3.126A27.45,27.45,0,0,1,33.8,54.247c-10.21,2.214-19.053-.456-26.331-7.948A26.1,26.1,0,0,1,.231,31.087a27.472,27.472,0,0,1,54.106-9.321c.225,1.075.332,2.175.5,3.263a3.209,3.209,0,0,0,.115.4Zm-6.516-4.827a21.128,21.128,0,0,0-23.9-18.225,20.5,20.5,0,0,0-13.663,7.86A20.623,20.623,0,0,0,6.491,24.75c.141,0,.2.006.259,0q4.408-.51,8.815-1.022c3.06-.356,6.118-.727,9.18-1.063a19.694,19.694,0,0,1,3.408-.219c1.952.128,3.892.431,5.837.659q4.559.534,9.117,1.066c1.757.2,3.516.4,5.328.605M6.684,31.133c1.326,9.15,9.464,16.358,17.586,17.217.011-.14.031-.28.031-.419,0-3.987.024-7.974-.009-11.961A6.321,6.321,0,0,0,17.13,29.9c-2.283.322-4.58.538-6.871.8-1.192.139-2.383.285-3.575.428m41.6.034c-.154-.034-.27-.072-.39-.086-3.324-.382-6.649-.747-9.971-1.147a6.291,6.291,0,0,0-7.276,6.421q-.009,5.7,0,11.4v.606c7.674-.849,16.025-7.438,17.638-17.2M24.138,28.083a3.23,3.23,0,1,0,3.186-3.27,3.248,3.248,0,0,0-3.186,3.27" transform="translate(0 -0.001)" fill="#f9b92b"/>
  </g>
</svg>
