<svg id="Group_35" data-name="Group 35" xmlns="http://www.w3.org/2000/svg" xmlns:xlink="http://www.w3.org/1999/xlink" width="27.117" height="27.075" viewBox="0 0 27.117 27.075">
  <defs>
    <clipPath id="clip-path">
      <rect id="Rectangle_76" data-name="Rectangle 76" width="27.117" height="27.075" fill="#02284b"/>
    </clipPath>
  </defs>
  <g id="Group_34" data-name="Group 34" clip-path="url(#clip-path)">
    <path id="Path_31" data-name="Path 31" d="M.454,8.983H6.079V27.066H.454ZM3.266,0A3.261,3.261,0,1,1,.958.952,3.26,3.26,0,0,1,3.266,0" transform="translate(0 0)" fill="#02284b"/>
    <path id="Path_32" data-name="Path 32" d="M63.08,56.608h5.39v2.468h.068a5.908,5.908,0,0,1,5.321-2.921c5.69,0,6.733,3.744,6.733,8.623V74.7H74.968V65.9c0-2.1-.033-4.8-2.921-4.8-2.921,0-3.376,2.284-3.376,4.634v8.95H63.047V56.608Z" transform="translate(-53.475 -47.626)" fill="#02284b"/>
  </g>
</svg>
