<svg xmlns="http://www.w3.org/2000/svg" xmlns:xlink="http://www.w3.org/1999/xlink" width="311.04" height="311.08" viewBox="0 0 311.04 311.08">
  <defs>
    <clipPath id="clip-path">
      <rect id="Rectangle_10" data-name="Rectangle 10" width="311.04" height="311.08" fill="none"/>
    </clipPath>
  </defs>
  <g id="Group_11282" data-name="Group 11282" opacity="0.243">
    <g id="Group_12" data-name="Group 12" clip-path="url(#clip-path)">
      <path id="Path_13" data-name="Path 13" d="M311.04,155.532A155.52,155.52,0,1,1,155.52.012a155.52,155.52,0,0,1,155.52,155.52" transform="translate(0 0.007)" fill="#fff"/>
      <path id="Path_14" data-name="Path 14" d="M310.051,140.729l-177.206.655V127.3L290.263,78.383A155.539,155.539,0,0,0,2.952,123.759l101.053,4.273v13.943L.122,166.541a155.518,155.518,0,0,0,310.648-11c0-5-.258-9.935-.719-14.811" transform="translate(0.074)" fill="#faa800"/>
      <path id="Path_15" data-name="Path 15" d="M121.063,141.671a.177.177,0,0,0-.177-.159h5.1l.175-.144,3.231-17.974-.173-.207h-12.8a.181.181,0,0,0,.181-.181v-34.9a.181.181,0,0,0-.181-.181h6.219a.176.176,0,0,0,.177-.177V78.295a.176.176,0,0,0-.177-.177h-6.214a.176.176,0,0,0,.177-.177v-9.5c-.043-.063-.075-.106-.119-.169L96.67,61.495V42.046H91.8V61.4L71.706,68.27c-.043.063-.075.106-.119.169v9.5a.176.176,0,0,0,.177.177H65.55a.176.176,0,0,0-.177.177v9.453a.176.176,0,0,0,.177.177h6.219a.181.181,0,0,0-.181.181v34.9a.181.181,0,0,0,.181.181h-12.8c-.071.083-.1.124-.175.209l3.233,17.972.173.144h5.1a.177.177,0,0,0-.175.159L53.689,269.43a154.668,154.668,0,0,0,64.363,16.131l2.689.058,4.947.013c.17,0,.339,0,.507-.013l5.4-.247c.3-.023,2.883-.183,3.178-.206Z" transform="translate(32.493 25.447)" fill="#001f3b"/>
      <path id="Path_16" data-name="Path 16" d="M87.461,97.691H75.032a.119.119,0,0,1-.119-.119V77.252a.119.119,0,0,1,.119-.119H87.461a.119.119,0,0,1,.119.119v20.32a.119.119,0,0,1-.119.119" transform="translate(45.339 46.682)" fill="#faa800"/>
      <path id="Path_17" data-name="Path 17" d="M87.581,156.823H74.914V141.781a4.172,4.172,0,0,1,4.172-4.172h4.323a4.173,4.173,0,0,1,4.172,4.172Z" transform="translate(45.339 83.283)" fill="#faa800"/>
      <path id="Path_18" data-name="Path 18" d="M86.127,128.756H75.571V116.221a3.477,3.477,0,0,1,3.477-3.477h3.6a3.477,3.477,0,0,1,3.477,3.477Z" transform="translate(45.737 68.235)" fill="#faa800"/>
    </g>
  </g>
</svg>
