<svg id="Group_33" data-name="Group 33" xmlns="http://www.w3.org/2000/svg" xmlns:xlink="http://www.w3.org/1999/xlink" width="35.856" height="29.185" viewBox="0 0 35.856 29.185">
  <defs>
    <clipPath id="clip-path">
      <rect id="Rectangle_75" data-name="Rectangle 75" width="35.856" height="29.184" fill="#02284b"/>
    </clipPath>
  </defs>
  <g id="Group_32" data-name="Group 32" clip-path="url(#clip-path)">
    <path id="Path_30" data-name="Path 30" d="M10.89,22.821a7.409,7.409,0,0,1-6.862-5.107,7.29,7.29,0,0,0,3.164-.085c.022,0,.041-.022.1-.041A7.385,7.385,0,0,1,2.509,14.21a7.055,7.055,0,0,1-1.076-3.918,7.163,7.163,0,0,0,3.271.886A7.465,7.465,0,0,1,1.666,6.705a7.373,7.373,0,0,1,.781-5.341,21.04,21.04,0,0,0,15.2,7.7c-.041-.295-.085-.549-.126-.8A7.356,7.356,0,0,1,23.6.118a7.222,7.222,0,0,1,6.458,2.047.4.4,0,0,0,.4.1A14.89,14.89,0,0,0,34.734.622a.212.212,0,0,1,.1-.041h.046A7.618,7.618,0,0,1,31.739,4.59a13.68,13.68,0,0,0,4.095-1.1c.022.022.022.022.022.041-.275.38-.549.738-.844,1.1a13.981,13.981,0,0,1-2.68,2.554.264.264,0,0,0-.126.232,21.1,21.1,0,0,1-.126,3.271,21.52,21.52,0,0,1-1.9,6.563,21.067,21.067,0,0,1-3.994,5.807,19.7,19.7,0,0,1-10.125,5.629,22.345,22.345,0,0,1-4.095.484,20.827,20.827,0,0,1-11.8-3.164c-.041-.022-.085-.063-.169-.1A15.033,15.033,0,0,0,7.366,24.89a16.423,16.423,0,0,0,3.525-2.069Z" transform="translate(0 0)" fill="#02284b" fill-rule="evenodd"/>
  </g>
</svg>
