<svg id="Group_31" data-name="Group 31" xmlns="http://www.w3.org/2000/svg" xmlns:xlink="http://www.w3.org/1999/xlink" width="43.099" height="30.2" viewBox="0 0 43.099 30.2">
  <defs>
    <clipPath id="clip-path">
      <rect id="Rectangle_74" data-name="Rectangle 74" width="43.099" height="30.2" fill="#02284b"/>
    </clipPath>
  </defs>
  <g id="Group_30" data-name="Group 30" clip-path="url(#clip-path)">
    <path id="Path_29" data-name="Path 29" d="M4.443,29.316a5.054,5.054,0,0,1-3.316-3.221C-.305,22.167-.734,5.687,2.036,2.441A5.363,5.363,0,0,1,5.648.527C13.071-.267,36.021-.154,38.678.8a5.172,5.172,0,0,1,3.255,3.139C43.5,8,43.544,22.8,41.728,26.729a5.021,5.021,0,0,1-2.337,2.362c-2.8,1.451-31.315,1.428-34.948.225M16.226,21.6c4.472-2.315,8.9-4.609,13.371-6.947C25.1,12.318,20.675,10,16.226,7.663Z" transform="translate(0 0)" fill="#02284b" fill-rule="evenodd"/>
  </g>
</svg>
